<svg width="389" height="332" viewBox="0 0 389 332" fill="none" xmlns="http://www.w3.org/2000/svg">
<g opacity="0.1">
<path fill-rule="evenodd" clip-rule="evenodd" d="M218.746 1.09043C228.088 4.4905 232.904 14.8196 229.504 24.1613L215.96 61.3731C213.047 69.3765 205.048 74.0585 196.942 73.0974C195.612 74.0644 194.126 74.8639 192.503 75.4544C183.162 78.8545 172.832 74.0379 169.432 64.6963L155.888 27.4845C152.488 18.1429 157.305 7.81374 166.647 4.41367C175.988 1.01361 186.317 5.83018 189.717 15.1718L192.092 21.6951L195.675 11.8485C199.076 2.50693 209.405 -2.30963 218.746 1.09043Z" fill="#282828"/>
<ellipse cx="190.8" cy="210.6" rx="176.4" ry="181.8" fill="#282828"/>
<path fill-rule="evenodd" clip-rule="evenodd" d="M34.3108 294.588C34.2998 294.507 34.2889 294.425 34.278 294.344C23.6309 214.676 59.3079 144.171 113.965 136.866C141.876 133.136 169.338 146.608 190.95 171.294C212.562 146.608 240.025 133.136 267.935 136.866C322.462 144.153 358.098 214.338 347.698 293.771C318.407 352.345 259.141 392.4 190.799 392.4C122.775 392.4 63.7433 352.717 34.3108 294.588Z" fill="white"/>
<circle cx="84.5994" cy="282.6" r="27" fill="#FFC6AD"/>
<circle cx="296.999" cy="282.6" r="27" fill="#FFC6AD"/>
<g filter="url(#filter0_f_188_1546)">
<path d="M15.4518 258.159C15.8867 255.422 19.129 254.175 21.3293 255.86C116.844 329.017 269.907 325.77 358.651 255.772C360.782 254.09 363.971 255.202 364.534 257.858L380.609 333.739C383.316 346.515 377.117 359.605 365.195 364.934C250.841 416.042 125.062 415.955 18.0935 364.672C7.10595 359.404 1.27715 347.371 3.18921 335.336L15.4518 258.159Z" fill="#8ED2C9"/>
</g>
<path d="M15.4518 258.159C15.8867 255.422 19.129 254.175 21.3293 255.86C116.844 329.017 269.907 325.77 358.651 255.772C360.782 254.09 363.971 255.202 364.534 257.858L380.609 333.739C383.316 346.515 377.117 359.605 365.195 364.934C250.841 416.042 125.062 415.955 18.0935 364.672C7.10595 359.404 1.27715 347.371 3.18921 335.336L15.4518 258.159Z" fill="#6BECEF"/>
<circle cx="23.4" cy="23.4" r="23.4" transform="matrix(-1 0 0 1 133.199 212.4)" fill="#282828"/>
<circle cx="5.4" cy="5.4" r="5.4" transform="matrix(-1 0 0 1 125.998 223.2)" fill="white"/>
<circle cx="23.4" cy="23.4" r="23.4" transform="matrix(-1 0 0 1 295.199 212.4)" fill="#282828"/>
<circle cx="5.4" cy="5.4" r="5.4" transform="matrix(-1 0 0 1 287.998 223.2)" fill="white"/>
<path d="M223.2 243C223.2 234.053 208.694 226.8 190.8 226.8C172.906 226.8 158.4 234.053 158.4 243C158.4 251.947 172.906 270 190.8 270C208.694 270 223.2 251.947 223.2 243Z" fill="#FED402"/>
<circle cx="115.2" cy="270" r="7.2" fill="white"/>
</g>
<defs>
<filter id="filter0_f_188_1546" x="-0.770044" y="251.375" width="385.608" height="155.425" filterUnits="userSpaceOnUse" color-interpolation-filters="sRGB">
<feFlood flood-opacity="0" result="BackgroundImageFix"/>
<feBlend mode="normal" in="SourceGraphic" in2="BackgroundImageFix" result="shape"/>
<feGaussianBlur stdDeviation="1.8" result="effect1_foregroundBlur_188_1546"/>
</filter>
</defs>
</svg>
