<svg width="56" height="70" viewBox="0 0 56 70" fill="none" xmlns="http://www.w3.org/2000/svg">
<path fill-rule="evenodd" clip-rule="evenodd" d="M31.1856 0.941641C32.5154 1.42565 33.2011 2.89604 32.7171 4.22584L30.789 9.52306C30.3744 10.6623 29.2358 11.3288 28.0818 11.1921C27.8924 11.3298 27.6809 11.4436 27.4498 11.5277C26.12 12.0117 24.6497 11.3261 24.1656 9.99627L22.2376 4.69905C21.7536 3.36925 22.4393 1.89886 23.7691 1.41485C25.0989 0.930844 26.5693 1.6165 27.0533 2.9463L27.3912 3.87484L27.9014 2.47309C28.3854 1.14328 29.8558 0.457632 31.1856 0.941641Z" fill="#282828"/>
<ellipse cx="27.2071" cy="30.7658" rx="25.111" ry="25.8798" fill="#282828"/>
<path fill-rule="evenodd" clip-rule="evenodd" d="M4.93033 42.722C4.92875 42.7103 4.92718 42.6986 4.92561 42.6869C3.40996 31.3459 8.48869 21.3092 16.2693 20.2694C20.2424 19.7384 24.1518 21.6562 27.2284 25.1704C30.3049 21.6562 34.2143 19.7384 38.1875 20.2694C45.9497 21.3068 51.0228 31.2985 49.5417 42.6066C45.3719 50.9444 36.9355 56.6461 27.207 56.6461C17.5234 56.6461 9.1201 50.997 4.93033 42.722Z" fill="white"/>
<ellipse cx="12.0891" cy="41.0154" rx="3.84353" ry="3.84353" fill="#FFC6AD"/>
<ellipse cx="42.3248" cy="41.0154" rx="3.84353" ry="3.84353" fill="#FFC6AD"/>
<g filter="url(#filter0_f_188_1784)">
<path d="M2.32343 37.0471C2.35083 36.8747 2.5549 36.7965 2.69187 36.9048C16.391 47.7353 38.7781 47.2482 51.4716 36.899C51.6042 36.7909 51.8047 36.8609 51.8401 37.0282L54.5913 50.0145C54.7618 50.8194 54.3695 51.6411 53.6277 51.9969C36.4166 60.2505 17.2023 60.2449 1.17786 51.98C0.495599 51.6282 0.126634 50.8733 0.247093 50.1151L2.32343 37.0471Z" fill="#8ED2C9"/>
</g>
<path d="M2.32343 37.0471C2.35083 36.8747 2.5549 36.7965 2.69187 36.9048C16.391 47.7353 38.7781 47.2482 51.4716 36.899C51.6042 36.7909 51.8047 36.8609 51.8401 37.0282L54.5913 50.0145C54.7618 50.8194 54.3695 51.6411 53.6277 51.9969C36.4166 60.2505 17.2023 60.2449 1.17786 51.98C0.495599 51.6282 0.126634 50.8733 0.247093 50.1151L2.32343 37.0471Z" fill="#A9FDFF"/>
<g filter="url(#filter1_f_188_1784)">
<path d="M35.4028 51.0083C34.804 51.0083 34.3323 51.5214 34.3859 52.1178C34.9439 58.3265 35.7957 61.8699 39.0382 66.3797C39.2663 66.6968 39.6592 66.8495 40.0432 66.7779L40.0908 66.769C40.3653 67.5669 40.8167 68.2059 41.3451 68.7795C41.5369 68.9876 41.8611 69.0009 42.0692 68.8092C42.2774 68.6174 42.2907 68.2932 42.0989 68.085C41.6714 67.621 41.3319 67.1427 41.1124 66.5785L42.3437 66.349C42.6108 67.2241 43.0871 67.9109 43.6512 68.5232C43.843 68.7314 44.1672 68.7447 44.3754 68.5529C44.5835 68.3612 44.5968 68.037 44.405 67.8288C43.937 67.3208 43.5744 66.7958 43.3594 66.1596L44.4329 65.9595C44.7059 66.7764 45.1637 67.4274 45.7011 68.0108C45.8929 68.2189 46.2171 68.2322 46.4252 68.0405C46.6334 67.8487 46.6467 67.5245 46.4549 67.3163C46.0172 66.8412 45.6717 66.3512 45.4529 65.7693L46.5255 65.5693C46.8022 66.3294 47.2407 66.9444 47.751 67.4983C47.9427 67.7065 48.267 67.7198 48.4751 67.528C48.6833 67.3362 48.6966 67.012 48.5048 66.8039C48.0978 66.3621 47.7706 65.9075 47.5507 65.3782L48.6215 65.1785C48.8995 65.8831 49.3181 66.4618 49.8009 66.9858C49.9926 67.194 50.3168 67.2073 50.525 67.0155C50.7332 66.8237 50.7464 66.4995 50.5547 66.2914C50.1789 65.8835 49.8711 65.4647 49.6531 64.9862L50.721 64.7871C50.9981 65.4374 51.3959 65.9796 51.8507 66.4734C52.0425 66.6815 52.3667 66.6948 52.5749 66.503C52.783 66.3113 52.7963 65.9871 52.6046 65.7789C52.2604 65.4054 51.9734 65.0227 51.76 64.5934L52.8241 64.395C53.0978 64.9923 53.4741 65.4979 53.9006 65.9609C54.0924 66.1691 54.4166 66.1823 54.6248 65.9906C54.8329 65.7988 54.8462 65.4746 54.6544 65.2664C54.2747 64.8542 53.9644 64.4309 53.7459 63.946C53.9779 63.6333 54.0304 63.195 53.8197 62.8169C51.5912 58.8175 50.5032 56.1088 49.5805 51.8305C49.4777 51.3536 49.0582 51.0083 48.5704 51.0083H35.4028Z" fill="#8ED2C9"/>
</g>
<path fill-rule="evenodd" clip-rule="evenodd" d="M34.7832 51.0083C34.5182 51.0083 34.3097 51.2363 34.332 51.5004C34.9022 58.2306 35.7224 61.8694 39.2466 66.6663C39.349 66.8056 39.5236 66.8748 39.6935 66.8431L40.375 66.716C40.6344 67.4478 41.0541 68.0417 41.5552 68.5856C41.6401 68.6777 41.7836 68.6836 41.8757 68.5987C41.9678 68.5138 41.9737 68.3704 41.8888 68.2782C41.4323 67.7827 41.0621 67.26 40.8271 66.6317L42.6263 66.2963C42.879 67.1043 43.3232 67.7458 43.8612 68.3298C43.9461 68.4219 44.0896 68.4278 44.1817 68.3429C44.2738 68.2581 44.2797 68.1146 44.1948 68.0225C43.6993 67.4846 43.3055 66.9147 43.0758 66.2125L44.7166 65.9066C44.9747 66.6573 45.4007 67.2632 45.9112 67.8173C45.996 67.9095 46.1395 67.9153 46.2317 67.8305C46.3238 67.7456 46.3297 67.6021 46.2448 67.51C45.7783 67.0037 45.402 66.469 45.1679 65.8224L46.8103 65.5162C47.0715 66.211 47.4785 66.7809 47.9609 67.3046C48.0458 67.3967 48.1893 67.4026 48.2814 67.3177C48.3735 67.2328 48.3794 67.0894 48.2945 66.9972C47.8577 66.5231 47.5 66.0241 47.264 65.4316L48.9079 65.1251C49.1696 65.7655 49.5568 66.2993 50.0109 66.7922C50.0958 66.8843 50.2393 66.8902 50.3314 66.8054C50.4235 66.7205 50.4294 66.577 50.3445 66.4849C49.9377 66.0433 49.5995 65.5802 49.3643 65.0401L51.0092 64.7334C51.269 65.3207 51.6356 65.8182 52.0609 66.2798C52.1457 66.3719 52.2892 66.3778 52.3813 66.2929C52.4734 66.2081 52.4793 66.0646 52.3945 65.9725C52.0181 65.564 51.7005 65.137 51.4688 64.6477L53.1141 64.3409C53.3695 64.8766 53.7147 65.3376 54.1107 65.7675C54.1955 65.8596 54.339 65.8655 54.4311 65.7806C54.5233 65.6957 54.5291 65.5523 54.4443 65.4601C54.0988 65.0851 53.8028 64.6946 53.5773 64.2546L53.9044 64.1936C54.2118 64.1363 54.3698 63.7914 54.2152 63.5195C51.6337 58.9773 50.4805 56.1722 49.4838 51.3731C49.4399 51.1617 49.2538 51.0083 49.0379 51.0083H34.7832Z" fill="#A9FDFF"/>
<path d="M41.6146 54.8972C41.6494 54.8772 41.6835 54.8554 41.7169 54.8317C42.2883 54.4274 42.4258 53.6396 42.0242 53.0721C41.6226 52.5046 40.8339 52.3724 40.2626 52.7767C40.2072 52.8159 40.1558 52.8588 40.1086 52.9047C40.0734 52.4158 39.7636 51.97 39.2838 51.7939C38.6347 51.5556 37.9202 51.901 37.688 52.5654C37.5642 52.9196 37.6025 53.2929 37.7635 53.6004C37.712 53.5941 37.6596 53.5907 37.6064 53.5906C36.9027 53.5886 36.3393 54.1475 36.3481 54.8389C36.357 55.5303 36.9346 56.0924 37.6384 56.0944C37.6764 56.0945 37.714 56.093 37.7511 56.0899C37.7358 56.1238 37.7219 56.1588 37.7094 56.1946C37.4771 56.859 37.8151 57.5907 38.4642 57.829C39.1133 58.0673 39.8278 57.7219 40.06 57.0575C40.0806 56.9985 40.0968 56.939 40.1086 56.8793C40.3385 57.0868 40.6443 57.214 40.9785 57.2149C41.6823 57.2169 42.2456 56.658 42.2368 55.9666C42.231 55.5149 41.9825 55.1184 41.6146 54.8972Z" fill="white"/>
<g style="mix-blend-mode:multiply">
<ellipse cx="39.5557" cy="54.9058" rx="0.949574" ry="0.949573" transform="rotate(79.3679 39.5557 54.9058)" fill="#FED402"/>
</g>
<path d="M49.2077 59.7219C49.2563 59.694 49.3041 59.6635 49.3508 59.6304C50.1492 59.0653 50.3415 57.9643 49.7802 57.1712C49.219 56.3781 48.1167 56.1932 47.3182 56.7583C47.2407 56.8132 47.1689 56.8731 47.1029 56.9373C47.0538 56.254 46.6208 55.6309 45.9502 55.3848C45.043 55.0517 44.0445 55.5345 43.7199 56.463C43.5469 56.958 43.6004 57.4798 43.8255 57.9095C43.7535 57.9007 43.6802 57.896 43.6059 57.8958C42.6223 57.893 41.835 58.6742 41.8473 59.6405C41.8597 60.6068 42.667 61.3924 43.6506 61.3951C43.7037 61.3953 43.7562 61.3932 43.8081 61.3888C43.7868 61.4363 43.7673 61.4851 43.7498 61.5352C43.4252 62.4637 43.8976 63.4864 44.8048 63.8194C45.712 64.1525 46.7105 63.6697 47.035 62.7412C47.0639 62.6587 47.0864 62.5755 47.1029 62.4921C47.4242 62.7821 47.8516 62.9599 48.3187 62.9612C49.3023 62.964 50.0897 62.1828 50.0773 61.2165C50.0693 60.5852 49.7219 60.031 49.2077 59.7219Z" fill="white"/>
<g style="mix-blend-mode:multiply">
<ellipse cx="46.3304" cy="59.7341" rx="1.32712" ry="1.32712" transform="rotate(79.3679 46.3304 59.7341)" fill="#FED402"/>
</g>
<ellipse cx="3.33106" cy="3.33106" rx="3.33106" ry="3.33106" transform="matrix(-1 0 0 1 19.0072 31.022)" fill="#282828"/>
<ellipse cx="0.768705" cy="0.768706" rx="0.768705" ry="0.768706" transform="matrix(-1 0 0 1 17.9823 32.5596)" fill="white"/>
<ellipse cx="3.33106" cy="3.33106" rx="3.33106" ry="3.33106" transform="matrix(-1 0 0 1 42.0684 31.022)" fill="#282828"/>
<ellipse cx="0.768705" cy="0.768706" rx="0.768705" ry="0.768706" transform="matrix(-1 0 0 1 41.0435 32.5598)" fill="white"/>
<path d="M31.8193 35.3784C31.8193 34.1048 29.7543 33.0723 27.2071 33.0723C24.6598 33.0723 22.5948 34.1048 22.5948 35.3784C22.5948 36.652 24.6598 39.2219 27.2071 39.2219C29.7543 39.2219 31.8193 36.652 31.8193 35.3784Z" fill="#FED402"/>
<ellipse cx="16.4453" cy="39.222" rx="1.02494" ry="1.02494" fill="white"/>
<defs>
<filter id="filter0_f_188_1784" x="-0.00228228" y="36.6204" width="54.8599" height="21.7893" filterUnits="userSpaceOnUse" color-interpolation-filters="sRGB">
<feFlood flood-opacity="0" result="BackgroundImageFix"/>
<feBlend mode="normal" in="SourceGraphic" in2="BackgroundImageFix" result="shape"/>
<feGaussianBlur stdDeviation="0.1134" result="effect1_foregroundBlur_188_1784"/>
</filter>
<filter id="filter1_f_188_1784" x="34.1549" y="50.7815" width="20.8619" height="18.3901" filterUnits="userSpaceOnUse" color-interpolation-filters="sRGB">
<feFlood flood-opacity="0" result="BackgroundImageFix"/>
<feBlend mode="normal" in="SourceGraphic" in2="BackgroundImageFix" result="shape"/>
<feGaussianBlur stdDeviation="0.1134" result="effect1_foregroundBlur_188_1784"/>
</filter>
</defs>
</svg>
