<svg width="711" height="190" viewBox="0 0 711 190" fill="none" xmlns="http://www.w3.org/2000/svg">
<rect x="183" y="51" width="528" height="85" rx="20" fill="white" fill-opacity="0.9"/>
<path d="M235.08 102.4C235.16 102.68 235.16 103.28 235.16 103.6C235.16 104 234.96 104.4 234.72 104.72C234.44 105.08 234.12 105.28 233.68 105.44C233.08 105.64 232.48 105.76 231.88 105.76C231.28 105.8 230.64 105.8 230 105.88H229.84C227.76 105.92 225.68 105.92 223.48 105.88C221.4 105.8 217.72 106.44 216.88 104.16C216.8 103.92 216.72 103.64 216.72 103.4C216.52 101.6 216.64 99.84 216.64 98.12L216.72 92.32V86.96C216.72 85.04 216.76 83.72 216.8 81.92V81.72C216.84 81.2 216.88 80.64 216.88 80.12C216.92 79.56 217.04 79.04 217.32 78.56C217.48 78.16 217.76 77.84 218.16 77.6C218.52 77.36 218.96 77.24 219.4 77.24C219.76 77.24 220.12 77.28 220.44 77.32C220.76 77.36 221.04 77.56 221.36 77.8C221.52 77.96 221.68 78.2 221.8 78.48C221.88 78.72 221.96 79.04 222 79.36C222.04 79.72 222.12 80.04 222.12 80.36C222.04 80.68 222.04 81 222.04 81.28V82L221.88 100.84L229.8 100.92H231.68C232 100.92 232.4 100.96 232.76 101C233.16 101.04 233.48 101.12 233.8 101.2C234.12 101.28 234.36 101.44 234.52 101.6C234.84 101.88 235 102.12 235.08 102.4ZM250.049 99.96C251.289 99.6 252.929 99.72 252.929 101.52C252.929 102.84 251.489 103.84 250.449 104.28C248.929 104.96 246.809 105.36 244.689 105.28C241.809 105.16 238.929 104.2 237.449 101.84C236.089 99.52 235.889 96.36 236.409 93.84C237.009 90.76 238.489 88.88 240.449 87.72C242.809 86.36 246.089 86.32 248.769 87.52C250.569 88.32 252.089 89.68 252.849 91.6C253.249 92.56 253.449 94.56 253.049 95.72C252.369 97.64 251.249 97.68 248.329 97.8C245.769 97.92 243.969 97.8 240.889 97.72C240.569 99.88 242.929 100.72 244.889 100.88C246.689 101 248.289 100.48 250.049 99.96ZM248.329 92.2C247.849 91.64 247.329 91.2 246.729 90.92C245.889 90.56 244.889 90.64 244.049 90.88C243.209 91.08 242.649 91.44 242.089 92.08C241.929 92.24 240.809 93.96 241.249 93.96H249.089C249.049 93.2 248.849 92.76 248.329 92.2ZM271.961 87.8C272.361 88.8 272.001 90.32 271.081 90.68C270.161 91.08 267.601 91.24 266.281 91.28C266.401 94.48 266.521 98.16 266.441 100.48C266.441 102.12 266.521 104.92 265.441 105.32C263.801 106 262.281 105.6 261.721 104.76C260.841 103.4 260.961 100.84 261.001 99.44C261.041 97.2 261.081 94.2 261.081 91.32H260.481C259.201 91.32 256.241 91.28 255.481 90.36C254.281 88.96 255.161 86.96 256.521 86.6C257.481 86.36 259.481 86.36 261.041 86.4C261.001 85.88 261.001 85.36 260.961 84.88C260.881 83.56 260.841 80.68 262.041 79.76C263.641 78.48 265.481 79.64 265.881 81.12C266.241 82.36 266.201 84.84 266.201 86.4H266.601C268.161 86.44 271.161 85.88 271.961 87.8ZM283.23 98.4C281.19 97.12 278.03 97.2 276.03 95.72C273.87 94.08 273.55 91.44 274.91 89C276.39 86.44 280.11 85.72 282.87 86.2C284.71 86.52 287.03 87.24 287.71 89.36C288.15 90.76 287.07 91.96 285.63 91.72C284.07 91.44 282.91 90.16 281.27 90.16C278.87 90.08 277.83 92.32 280.07 93.52C282.15 94.6 285.03 94.56 286.87 96.08C290.43 98.92 288.15 104.44 283.87 105.36C280.79 106 276.43 105.4 274.27 102.92C272.79 101.16 274.31 98.08 276.43 99.44C278.19 100.6 281.27 101.84 282.83 100.84C283.99 100.08 283.99 98.92 283.23 98.4ZM301.874 97.12V91.28C301.874 90 301.834 87.76 302.354 86.52C302.754 85.56 303.794 85.28 304.834 85.32C307.074 85.36 307.194 86.92 307.234 88.6C308.154 86.92 310.994 86.48 311.234 86.48C312.554 86.4 313.554 86.36 314.874 86.8C316.554 87.44 318.914 89.16 317.914 91.04C317.194 92.36 316.234 92.08 315.194 91.8C314.634 91.68 313.674 91.2 313.114 91.08C309.554 90.56 307.394 93.8 307.394 93.8V99.56C307.434 102.44 307.594 106.16 304.034 105.92C303.074 105.88 302.234 104.76 302.074 103.92C301.914 102.32 301.834 99.24 301.874 97.12ZM332.823 99.96C334.063 99.6 335.703 99.72 335.703 101.52C335.703 102.84 334.263 103.84 333.223 104.28C331.703 104.96 329.583 105.36 327.463 105.28C324.583 105.16 321.703 104.2 320.223 101.84C318.863 99.52 318.663 96.36 319.183 93.84C319.783 90.76 321.263 88.88 323.223 87.72C325.583 86.36 328.863 86.32 331.543 87.52C333.343 88.32 334.863 89.68 335.623 91.6C336.023 92.56 336.223 94.56 335.823 95.72C335.143 97.64 334.023 97.68 331.103 97.8C328.543 97.92 326.743 97.8 323.663 97.72C323.343 99.88 325.703 100.72 327.663 100.88C329.463 101 331.063 100.48 332.823 99.96ZM331.103 92.2C330.623 91.64 330.103 91.2 329.503 90.92C328.663 90.56 327.663 90.64 326.823 90.88C325.983 91.08 325.423 91.44 324.863 92.08C324.703 92.24 323.583 93.96 324.023 93.96H331.863C331.823 93.2 331.623 92.76 331.103 92.2ZM343.546 88.6C346.786 86.96 350.706 87.2 353.426 89.84C354.826 91.24 355.506 92.88 355.826 94.88C356.226 97.6 357.946 99.56 358.546 102.16C358.826 103.4 358.386 104.76 357.026 105C355.386 105.32 354.226 103.56 353.506 102.4C352.266 104 350.906 104.84 348.906 105.12C347.186 105.32 345.746 105.24 343.986 104.76C339.426 103.56 338.106 98.56 339.266 94.2C340.026 91.32 341.586 89.56 343.546 88.6ZM344.546 93.28C343.026 94.72 342.866 97.64 344.066 99.36C344.586 100.12 346.026 100.68 347.426 100.76C350.626 100.96 352.346 96.4 350.626 93.64C349.386 91.6 346.066 91.8 344.546 93.28ZM374.353 77.48C376.353 76.92 377.553 78.4 377.553 80.28C377.593 82.96 377.553 84.24 377.553 85.36V97.64C377.553 106.28 377.993 105.72 371.393 105.72C365.673 105.72 362.113 103.08 361.913 97.2C361.753 92.08 364.953 88.52 370.473 88.6H372.673V81.44C372.713 79.76 372.393 78 374.353 77.48ZM367.393 99.68C367.953 100.44 368.993 100.88 370.433 100.96C371.593 101.04 372.673 100.76 372.673 100.76V93.36C370.833 93.04 369.393 92.72 367.873 93.88C366.233 95.16 366.233 98.08 367.393 99.68ZM414.1 87.44C415.1 88.84 413.22 93.8 412.46 95.92C411.58 98.36 410.98 100.36 410.02 102.88C409.42 104.36 408.9 106 407.3 106C405.46 106.04 404.78 103.04 404.3 101.4C403.62 99.08 403.1 97.12 402.66 95.56C402.18 97.12 401.74 98.88 401.02 101.16C400.58 102.76 399.86 106.16 398.02 106C395.5 105.88 394.34 101.52 393.7 99.32C392.82 96.44 391.18 92.04 390.82 88.92C390.58 86.84 393.18 85.36 394.82 87.48C395.7 88.56 396.1 90.8 396.66 92.6C397.22 94.6 397.58 95.56 398.02 96.76C398.38 95.56 398.74 94.6 399.34 92.6C399.78 91.28 400.46 89.2 401.54 88.52C403.94 86.96 405.26 90.6 405.9 92.6C406.58 94.72 406.9 95.6 407.3 96.88C407.74 95.6 408.02 94.72 408.7 92.6C409.18 91.2 409.62 88.8 410.34 87.6C411.1 86.4 413.02 85.88 414.1 87.44ZM422.656 90.28C422.656 93.24 422.776 98.08 422.656 101.36C422.576 102.96 422.416 105.4 420.136 105.28C418.496 105.2 417.816 103.8 417.736 101.4C417.696 98.92 417.616 94.8 417.656 92.28C417.696 90.8 417.376 87.72 418.376 86.36C419.096 85.48 421.496 85.44 422.176 86.44C422.576 87.08 422.656 88.96 422.656 90.28ZM421.136 82.2C419.496 82.64 418.296 81.72 418.056 80.2C417.616 77.92 419.856 76.64 421.736 78C423.576 79.32 423.256 81.52 421.136 82.2ZM443.25 87.8C443.65 88.8 443.29 90.32 442.37 90.68C441.45 91.08 438.89 91.24 437.57 91.28C437.69 94.48 437.81 98.16 437.73 100.48C437.73 102.12 437.81 104.92 436.73 105.32C435.09 106 433.57 105.6 433.01 104.76C432.13 103.4 432.25 100.84 432.29 99.44C432.33 97.2 432.37 94.2 432.37 91.32H431.77C430.49 91.32 427.53 91.28 426.77 90.36C425.57 88.96 426.45 86.96 427.81 86.6C428.77 86.36 430.77 86.36 432.33 86.4C432.29 85.88 432.29 85.36 432.25 84.88C432.17 83.56 432.13 80.68 433.33 79.76C434.93 78.48 436.77 79.64 437.17 81.12C437.53 82.36 437.49 84.84 437.49 86.4H437.89C439.45 86.44 442.45 85.88 443.25 87.8ZM462.239 97.56C462.279 98.6 462.279 99.84 462.239 100.8C462.119 103.68 462.079 105.68 459.679 105.4C457.239 105.12 457.799 100.76 457.719 99.24C457.639 96.88 457.879 92.64 455.119 92.56C451.559 92.36 451.799 94.16 451.519 96.52L451.479 98.08V101C451.479 102.92 451.559 105.4 448.999 105.44C447.399 105.44 446.639 104.24 446.639 102.72V79.72C446.639 79.4 446.679 79.12 446.719 78.8C446.799 78.48 446.879 78.2 446.959 77.92C447.039 77.68 447.199 77.44 447.359 77.32C447.639 77.08 447.879 76.88 448.199 76.84C448.479 76.8 448.799 76.76 449.119 76.76C449.559 76.76 449.919 76.88 450.279 77.12C450.599 77.32 450.879 77.56 451.039 77.96C451.239 78.44 451.359 78.88 451.359 79.4C451.439 79.92 451.439 81.6 451.479 82.12V82.32C451.519 84 451.519 85.8 451.519 87.6V88.28C453.719 87.52 456.399 87.52 458.319 88.48C462.279 90.48 462.119 93.68 462.239 97.56Z" fill="#1E1E1E"/>
<path d="M496.187 93.8C496.707 95.32 496.707 97.68 496.227 99.12C494.507 105.12 484.987 107.2 479.547 104.2C477.827 103.24 476.627 101.84 475.787 100.12C475.187 98.92 475.427 96.84 477.107 96.44C478.227 96.2 479.867 96.4 480.507 97.76C481.067 98.88 482.267 99.84 483.507 100.44C487.027 101.64 491.067 99.8 491.067 96.72C491.067 94.2 489.547 93.48 487.267 92.92C484.747 92.4 481.947 92.6 479.507 91.52C474.627 89.48 474.387 82.56 477.907 79.2C479.627 77.68 482.027 77.08 484.907 76.96C488.107 76.84 491.627 77.6 493.507 79.2C494.867 80.28 496.707 83 494.667 84.24C492.987 85.32 491.587 83.6 490.467 82.8C489.027 81.72 486.627 81.4 484.787 81.6C482.467 81.88 480.587 83.12 480.787 85.52C480.907 87.24 482.747 87.8 484.307 88C486.667 88.32 489.147 88.28 491.427 89.16C493.747 90.08 495.507 91.64 496.187 93.8ZM514.735 87.8C515.135 88.8 514.775 90.32 513.855 90.68C512.935 91.08 510.375 91.24 509.055 91.28C509.175 94.48 509.295 98.16 509.215 100.48C509.215 102.12 509.295 104.92 508.215 105.32C506.575 106 505.055 105.6 504.495 104.76C503.615 103.4 503.735 100.84 503.775 99.44C503.815 97.2 503.855 94.2 503.855 91.32H503.255C501.975 91.32 499.015 91.28 498.255 90.36C497.055 88.96 497.935 86.96 499.295 86.6C500.255 86.36 502.255 86.36 503.815 86.4C503.775 85.88 503.775 85.36 503.735 84.88C503.655 83.56 503.615 80.68 504.815 79.76C506.415 78.48 508.255 79.64 508.655 81.12C509.015 82.36 508.975 84.84 508.975 86.4H509.375C510.935 86.44 513.935 85.88 514.735 87.8ZM521.135 87.36C524.695 85.6 528.975 85.88 531.975 88.76C533.175 89.96 534.135 91.88 534.575 93.52C535.455 96.44 534.695 99.56 533.135 102.12C532.415 103.28 531.255 104.28 530.015 104.84C528.415 105.56 526.455 105.88 524.695 105.72C518.335 105.36 514.775 99.56 516.375 93.56C517.215 90.4 518.935 88.44 521.135 87.36ZM522.335 92.72C520.775 94.24 520.535 97.4 521.855 99.28C522.375 100.08 523.975 100.68 525.455 100.76C528.895 100.96 530.735 96.08 528.895 93.12C527.575 90.96 524.015 91.16 522.335 92.72ZM538.203 97.12V91.28C538.203 90 538.163 87.76 538.683 86.52C539.083 85.56 540.123 85.28 541.163 85.32C543.403 85.36 543.523 86.92 543.563 88.6C544.483 86.92 547.323 86.48 547.563 86.48C548.883 86.4 549.883 86.36 551.203 86.8C552.883 87.44 555.243 89.16 554.243 91.04C553.523 92.36 552.563 92.08 551.523 91.8C550.963 91.68 550.003 91.2 549.443 91.08C545.883 90.56 543.723 93.8 543.723 93.8V99.56C543.763 102.44 543.923 106.16 540.363 105.92C539.403 105.88 538.563 104.76 538.403 103.92C538.243 102.32 538.163 99.24 538.203 97.12ZM574.335 87.6C574.575 87.96 574.695 88.36 574.655 88.8C574.655 89.36 574.575 89.88 574.335 90.4C574.135 90.92 573.535 92.28 573.295 92.76L573.215 92.96C572.495 94.6 571.815 96.08 570.975 97.84C570.135 99.56 569.335 101.16 568.615 102.72C568.415 103.12 568.255 103.56 568.015 103.96L566.095 108.08C565.415 109.48 564.815 110.8 564.095 112.12C563.935 112.4 563.815 112.6 563.695 112.88C563.335 113.52 562.535 114.28 561.735 114.32C561.055 114.36 560.415 114.16 559.855 113.68C559.495 113.48 559.255 113.2 559.095 112.88C558.975 112.6 558.935 112.28 558.935 111.96C558.975 111.64 559.015 111.36 559.055 111.08C559.175 110.8 559.215 110.52 559.295 110.36C559.375 110.16 559.415 110.04 559.495 110.04L562.415 103.72C562.135 103.12 561.855 102.48 561.655 102C560.255 98.64 558.575 94.56 556.855 91.4C556.255 90.32 555.575 88.96 556.375 87.72C557.255 86.08 559.375 86.48 560.255 87.52C561.135 88.48 561.615 89.72 562.095 90.92C563.095 93.04 564.215 95.48 565.255 97.72L567.335 93.32C567.735 92.48 568.095 91.68 568.455 90.92C568.895 90 569.255 89 569.775 88.2C569.855 88 570.015 87.84 570.095 87.64C570.335 87.32 570.495 87.12 570.735 86.88C570.975 86.68 571.175 86.52 571.415 86.48C571.775 86.36 572.135 86.36 572.455 86.4C572.735 86.48 573.055 86.6 573.415 86.76C573.815 86.92 574.135 87.24 574.335 87.6ZM602.249 102.56C602.209 103.2 602.089 103.92 601.849 104.52C601.729 104.8 601.529 105.08 601.329 105.24C601.049 105.48 600.729 105.64 600.289 105.68C599.529 105.92 598.849 105.8 598.249 105.52C596.769 104.6 596.969 102.72 596.929 101.32V98.2L596.889 92.08C596.889 90.36 596.889 90.52 596.849 88.64C596.849 88.48 596.889 88.36 596.809 86.6C592.649 93.52 591.729 94.6 590.209 94.72C589.329 94.8 588.449 93.8 587.969 93.2C586.689 91.6 585.049 89.44 583.329 86.24C583.289 86.44 583.249 103.24 583.089 103.28C583.089 105.08 581.289 106.64 579.089 105.48C578.409 105.04 578.049 104.12 577.969 103.44C577.929 102.72 577.889 102 577.889 101.28L577.929 98.16L577.969 92V86.64C577.969 84.32 578.049 82.04 578.209 79.8C578.209 79.24 578.369 78.72 578.569 78.24C578.769 77.84 579.009 77.52 579.409 77.28C579.809 77.04 580.249 76.92 580.689 76.92C581.049 76.92 581.409 76.96 581.729 77C582.809 77.2 583.529 78.56 584.209 79.28C585.049 80.24 586.209 82.2 586.849 83.24C588.249 85.48 589.289 87.4 590.249 88.72C590.529 88.4 591.209 87.4 591.409 87C592.529 85.28 593.449 83.88 595.209 80.96C595.969 79.72 597.649 76.96 599.369 76.92C599.769 76.92 600.089 76.96 600.409 77C600.769 77.04 601.049 77.2 601.329 77.44C601.529 77.64 601.689 77.84 601.809 78.12C601.889 78.4 601.969 78.72 602.009 79C602.049 79.36 602.089 79.68 602.089 80C602.089 82.96 602.169 85.92 602.169 88.88C602.169 92.48 602.209 96.48 602.209 100.08C602.209 100.84 602.289 101.72 602.249 102.56ZM610.186 88.6C613.426 86.96 617.346 87.2 620.066 89.84C621.466 91.24 622.146 92.88 622.466 94.88C622.866 97.6 624.586 99.56 625.186 102.16C625.466 103.4 625.026 104.76 623.666 105C622.026 105.32 620.866 103.56 620.146 102.4C618.906 104 617.546 104.84 615.546 105.12C613.826 105.32 612.386 105.24 610.626 104.76C606.066 103.56 604.746 98.56 605.906 94.2C606.666 91.32 608.226 89.56 610.186 88.6ZM611.186 93.28C609.666 94.72 609.506 97.64 610.706 99.36C611.226 100.12 612.666 100.68 614.066 100.76C617.266 100.96 618.986 96.4 617.266 93.64C616.026 91.6 612.706 91.8 611.186 93.28ZM640.868 87.8C641.268 88.8 640.908 90.32 639.988 90.68C639.068 91.08 636.508 91.24 635.188 91.28C635.308 94.48 635.428 98.16 635.348 100.48C635.348 102.12 635.428 104.92 634.348 105.32C632.708 106 631.188 105.6 630.628 104.76C629.748 103.4 629.868 100.84 629.908 99.44C629.948 97.2 629.988 94.2 629.988 91.32H629.388C628.108 91.32 625.148 91.28 624.388 90.36C623.188 88.96 624.068 86.96 625.428 86.6C626.388 86.36 628.388 86.36 629.948 86.4C629.908 85.88 629.908 85.36 629.868 84.88C629.788 83.56 629.748 80.68 630.948 79.76C632.548 78.48 634.388 79.64 634.788 81.12C635.148 82.36 635.108 84.84 635.108 86.4H635.508C637.068 86.44 640.068 85.88 640.868 87.8ZM656.495 99.96C657.735 99.6 659.375 99.72 659.375 101.52C659.375 102.84 657.935 103.84 656.895 104.28C655.375 104.96 653.255 105.36 651.135 105.28C648.255 105.16 645.375 104.2 643.895 101.84C642.535 99.52 642.335 96.36 642.855 93.84C643.455 90.76 644.935 88.88 646.895 87.72C649.255 86.36 652.535 86.32 655.215 87.52C657.015 88.32 658.535 89.68 659.295 91.6C659.695 92.56 659.895 94.56 659.495 95.72C658.815 97.64 657.695 97.68 654.775 97.8C652.215 97.92 650.415 97.8 647.335 97.72C647.015 99.88 649.375 100.72 651.335 100.88C653.135 101 654.735 100.48 656.495 99.96ZM654.775 92.2C654.295 91.64 653.775 91.2 653.175 90.92C652.335 90.56 651.335 90.64 650.495 90.88C649.655 91.08 649.095 91.44 648.535 92.08C648.375 92.24 647.255 93.96 647.695 93.96H655.535C655.495 93.2 655.295 92.76 654.775 92.2ZM664.728 75.96C665.168 75.28 666.008 74.96 666.688 74.96C667.288 74.96 667.848 74.96 668.368 75.08C670.608 75.68 670.008 80.08 670.008 81.8V93.6C670.008 94.64 670.088 95.76 669.728 96.72C669.008 98.52 665.168 98.4 664.448 96.68C664.288 96.2 664.208 95.36 664.168 94.8C664.128 93.88 664.168 92.88 664.168 91.88V78.48C664.168 77.84 664.288 76.64 664.728 75.96ZM669.328 101.68C669.488 101.92 669.648 102.16 669.728 102.48C670.048 103.6 669.968 105.24 668.648 105.8C667.488 106.28 665.248 106.08 664.728 104.68C664.448 103.92 664.408 102.84 664.688 102.08C665.008 101.28 665.768 101.04 666.568 101.04C667.568 101 668.648 101 669.328 101.68Z" fill="#00B8BC"/>
<path fill-rule="evenodd" clip-rule="evenodd" d="M87.4984 0.431397C91.1923 1.77587 93.0969 5.86027 91.7524 9.55417L86.3968 24.2687C85.245 27.4333 82.0822 29.2846 78.8768 28.9048C78.3507 29.2873 77.763 29.6036 77.1213 29.8372C73.4274 31.1816 69.3429 29.277 67.9985 25.5831L62.6429 10.8687C61.2984 7.17475 63.203 3.09034 66.8969 1.74587C70.5908 0.401404 74.6752 2.30599 76.0196 5.99989L76.9584 8.57917L78.3756 4.68542C79.7201 0.991517 83.8045 -0.913073 87.4984 0.431397Z" fill="#282828"/>
<ellipse cx="76.4468" cy="83.2771" rx="69.7529" ry="71.8882" fill="#282828"/>
<path fill-rule="evenodd" clip-rule="evenodd" d="M14.5673 116.488C14.5629 116.456 14.5585 116.424 14.5542 116.391C10.3441 84.8884 24.4517 57.0089 46.0644 54.1205C57.1009 52.6456 67.9604 57.9726 76.5063 67.7343C85.0522 57.9726 95.9117 52.6456 106.948 54.1205C128.509 57.002 142.601 84.7553 138.488 116.165C126.906 139.327 103.471 155.166 76.4465 155.166C49.548 155.166 26.2056 139.474 14.5673 116.488Z" fill="white"/>
<ellipse cx="34.4529" cy="111.748" rx="10.6765" ry="10.6765" fill="#FFC6AD"/>
<ellipse cx="118.441" cy="111.748" rx="10.6765" ry="10.6765" fill="#FFC6AD"/>
<g filter="url(#filter0_f_188_1678)">
<path d="M7.32595 100.725C7.40206 100.246 7.96893 100.029 8.34939 100.329C46.4024 130.414 108.589 129.061 143.849 100.313C144.217 100.013 144.774 100.207 144.872 100.672L152.514 136.745C152.988 138.981 151.898 141.264 149.838 142.252C102.029 165.179 48.6561 165.163 4.14382 142.205C2.24866 141.228 1.22375 139.131 1.55836 137.025L7.32595 100.725Z" fill="#8ED2C9"/>
</g>
<path d="M7.32595 100.725C7.40206 100.246 7.96893 100.029 8.34939 100.329C46.4024 130.414 108.589 129.061 143.849 100.313C144.217 100.013 144.774 100.207 144.872 100.672L152.514 136.745C152.988 138.981 151.898 141.264 149.838 142.252C102.029 165.179 48.6561 165.163 4.14382 142.205C2.24866 141.228 1.22375 139.131 1.55836 137.025L7.32595 100.725Z" fill="#A9FDFF"/>
<g filter="url(#filter1_f_188_1678)">
<path d="M99.2132 139.506C97.5498 139.506 96.2394 140.932 96.3883 142.588C97.9383 159.835 100.304 169.677 109.312 182.204C109.945 183.085 111.036 183.509 112.103 183.311L112.235 183.286C112.998 185.502 114.252 187.277 115.719 188.871C116.252 189.449 117.153 189.486 117.731 188.953C118.309 188.42 118.346 187.52 117.813 186.942C116.626 185.652 115.683 184.324 115.073 182.757L118.493 182.119C119.235 184.55 120.558 186.458 122.125 188.159C122.658 188.737 123.559 188.774 124.137 188.241C124.715 187.709 124.752 186.808 124.219 186.23C122.919 184.819 121.912 183.36 121.315 181.593L124.297 181.037C125.055 183.307 126.327 185.115 127.819 186.735C128.352 187.313 129.253 187.35 129.831 186.818C130.409 186.285 130.446 185.384 129.913 184.806C128.697 183.486 127.738 182.125 127.13 180.509L130.109 179.953C130.878 182.065 132.096 183.773 133.514 185.312C134.046 185.89 134.947 185.927 135.525 185.394C136.103 184.861 136.14 183.961 135.607 183.383C134.477 182.156 133.568 180.893 132.957 179.422L135.932 178.868C136.704 180.825 137.867 182.432 139.208 183.888C139.74 184.466 140.641 184.503 141.219 183.971C141.797 183.438 141.834 182.537 141.302 181.959C140.258 180.826 139.403 179.663 138.797 178.334L141.764 177.781C142.533 179.587 143.638 181.093 144.902 182.465C145.434 183.043 146.335 183.08 146.913 182.547C147.491 182.014 147.528 181.114 146.996 180.536C146.04 179.498 145.242 178.435 144.65 177.243L147.606 176.691C148.366 178.351 149.411 179.755 150.596 181.041C151.129 181.619 152.029 181.656 152.607 181.124C153.186 180.591 153.223 179.69 152.69 179.112C151.635 177.967 150.773 176.791 150.166 175.444C150.811 174.576 150.956 173.358 150.371 172.308C144.181 161.198 141.159 153.674 138.596 141.79C138.31 140.465 137.145 139.506 135.79 139.506H99.2132Z" fill="#8ED2C9"/>
</g>
<path fill-rule="evenodd" clip-rule="evenodd" d="M97.492 139.506C96.7559 139.506 96.1767 140.14 96.2388 140.873C97.8226 159.568 100.101 169.676 109.89 183.001C110.175 183.388 110.66 183.58 111.132 183.492L113.025 183.139C113.745 185.172 114.911 186.822 116.303 188.333C116.539 188.589 116.938 188.605 117.194 188.369C117.449 188.134 117.466 187.735 117.23 187.479C115.962 186.102 114.933 184.65 114.28 182.905L119.279 181.973C119.98 184.217 121.214 185.999 122.709 187.621C122.945 187.877 123.343 187.894 123.599 187.658C123.855 187.422 123.871 187.024 123.636 186.768C122.259 185.274 121.165 183.691 120.527 181.74L125.085 180.89C125.802 182.976 126.985 184.659 128.403 186.198C128.639 186.454 129.037 186.47 129.293 186.234C129.549 185.999 129.566 185.6 129.33 185.344C128.034 183.938 126.989 182.453 126.338 180.657L130.901 179.806C131.627 181.736 132.757 183.319 134.097 184.774C134.333 185.03 134.732 185.046 134.988 184.81C135.244 184.575 135.26 184.176 135.024 183.92C133.811 182.603 132.817 181.217 132.161 179.571L136.727 178.72C137.454 180.498 138.53 181.981 139.791 183.35C140.027 183.606 140.426 183.623 140.681 183.387C140.937 183.151 140.954 182.753 140.718 182.497C139.588 181.27 138.648 179.984 137.995 178.483L142.564 177.631C143.286 179.263 144.304 180.645 145.486 181.927C145.721 182.183 146.12 182.199 146.376 181.964C146.632 181.728 146.648 181.329 146.412 181.073C145.367 179.939 144.484 178.753 143.841 177.393L148.411 176.541C149.121 178.029 150.079 179.31 151.179 180.504C151.415 180.76 151.814 180.776 152.07 180.54C152.326 180.305 152.342 179.906 152.106 179.65C151.147 178.609 150.324 177.524 149.698 176.301L150.606 176.132C151.46 175.973 151.899 175.015 151.47 174.259C144.299 161.642 141.096 153.85 138.327 140.519C138.205 139.932 137.688 139.506 137.088 139.506H97.492Z" fill="#A9FDFF"/>
<path d="M116.468 150.309C116.565 150.253 116.66 150.192 116.753 150.127C118.34 149.004 118.722 146.815 117.606 145.239C116.491 143.663 114.3 143.295 112.713 144.418C112.559 144.527 112.416 144.646 112.285 144.774C112.187 143.416 111.327 142.178 109.994 141.688C108.191 141.026 106.206 141.986 105.561 143.831C105.217 144.815 105.323 145.852 105.771 146.706C105.628 146.689 105.482 146.68 105.334 146.679C103.38 146.674 101.815 148.226 101.839 150.147C101.864 152.067 103.468 153.629 105.423 153.634C105.529 153.635 105.633 153.63 105.736 153.622C105.694 153.716 105.655 153.813 105.62 153.913C104.975 155.758 105.914 157.791 107.717 158.453C109.52 159.114 111.505 158.155 112.15 156.31C112.207 156.146 112.252 155.98 112.285 155.815C112.923 156.391 113.773 156.744 114.701 156.747C116.656 156.752 118.221 155.2 118.197 153.279C118.181 152.024 117.49 150.923 116.468 150.309Z" fill="white"/>
<g style="mix-blend-mode:multiply">
<ellipse cx="110.75" cy="150.332" rx="2.6377" ry="2.6377" transform="rotate(79.3679 110.75 150.332)" fill="#FED402"/>
</g>
<path d="M137.56 163.711C137.695 163.633 137.828 163.548 137.957 163.456C140.175 161.887 140.71 158.828 139.15 156.625C137.591 154.422 134.529 153.909 132.311 155.478C132.096 155.631 131.897 155.797 131.713 155.976C131.577 154.078 130.374 152.347 128.511 151.663C125.991 150.738 123.218 152.079 122.316 154.658C121.836 156.033 121.984 157.482 122.609 158.676C122.409 158.652 122.206 158.639 122 158.638C119.267 158.63 117.08 160.8 117.115 163.484C117.149 166.169 119.391 168.351 122.124 168.358C122.271 168.359 122.417 168.353 122.561 168.341C122.502 168.473 122.448 168.608 122.399 168.748C121.498 171.327 122.81 174.168 125.33 175.093C127.85 176.018 130.623 174.677 131.525 172.098C131.605 171.869 131.667 171.637 131.713 171.406C132.606 172.211 133.793 172.705 135.091 172.709C137.823 172.716 140.01 170.547 139.976 167.862C139.953 166.109 138.988 164.569 137.56 163.711Z" fill="white"/>
<g style="mix-blend-mode:multiply">
<ellipse cx="129.568" cy="163.744" rx="3.68645" ry="3.68645" transform="rotate(79.3679 129.568 163.744)" fill="#FED402"/>
</g>
<ellipse cx="9.25293" cy="9.25294" rx="9.25293" ry="9.25294" transform="matrix(-1 0 0 1 53.67 83.989)" fill="#282828"/>
<ellipse cx="2.13529" cy="2.13529" rx="2.13529" ry="2.13529" transform="matrix(-1 0 0 1 50.8228 88.2597)" fill="white"/>
<ellipse cx="9.25293" cy="9.25294" rx="9.25293" ry="9.25294" transform="matrix(-1 0 0 1 117.729 83.9889)" fill="#282828"/>
<ellipse cx="2.13529" cy="2.13529" rx="2.13529" ry="2.13529" transform="matrix(-1 0 0 1 114.882 88.2598)" fill="white"/>
<path d="M89.2586 96.0887C89.2586 92.5509 83.5226 89.6828 76.4469 89.6828C69.3711 89.6828 63.6351 92.5509 63.6351 96.0887C63.6351 99.6266 69.3711 106.765 76.4469 106.765C83.5226 106.765 89.2586 99.6266 89.2586 96.0887Z" fill="#FED402"/>
<ellipse cx="46.553" cy="106.766" rx="2.84706" ry="2.84706" fill="white"/>
<g filter="url(#filter2_f_188_1678)">
<path d="M674 144L678.051 154.949L689 159L678.051 163.051L674 174L669.949 163.051L659 159L669.949 154.949L674 144Z" fill="white"/>
</g>
<path d="M674 144L678.051 154.949L689 159L678.051 163.051L674 174L669.949 163.051L659 159L669.949 154.949L674 144Z" fill="white"/>
<g filter="url(#filter3_f_188_1678)">
<path d="M538.5 30L540.526 35.4743L546 37.5L540.526 39.5257L538.5 45L536.474 39.5257L531 37.5L536.474 35.4743L538.5 30Z" fill="white"/>
</g>
<path d="M538.5 30L540.526 35.4743L546 37.5L540.526 39.5257L538.5 45L536.474 39.5257L531 37.5L536.474 35.4743L538.5 30Z" fill="white"/>
<g filter="url(#filter4_f_188_1678)">
<path d="M465.5 142L468.336 149.664L476 152.5L468.336 155.336L465.5 163L462.664 155.336L455 152.5L462.664 149.664L465.5 142Z" fill="white"/>
</g>
<path d="M465.5 142L468.336 149.664L476 152.5L468.336 155.336L465.5 163L462.664 155.336L455 152.5L462.664 149.664L465.5 142Z" fill="white"/>
<path d="M165 96L183 85.6077L183 106.392L165 96Z" fill="white" fill-opacity="0.9"/>
<defs>
<filter id="filter0_f_188_1678" x="0.865605" y="99.5396" width="152.389" height="60.5257" filterUnits="userSpaceOnUse" color-interpolation-filters="sRGB">
<feFlood flood-opacity="0" result="BackgroundImageFix"/>
<feBlend mode="normal" in="SourceGraphic" in2="BackgroundImageFix" result="shape"/>
<feGaussianBlur stdDeviation="0.315" result="effect1_foregroundBlur_188_1678"/>
</filter>
<filter id="filter1_f_188_1678" x="95.7467" y="138.876" width="57.9497" height="51.0835" filterUnits="userSpaceOnUse" color-interpolation-filters="sRGB">
<feFlood flood-opacity="0" result="BackgroundImageFix"/>
<feBlend mode="normal" in="SourceGraphic" in2="BackgroundImageFix" result="shape"/>
<feGaussianBlur stdDeviation="0.315" result="effect1_foregroundBlur_188_1678"/>
</filter>
<filter id="filter2_f_188_1678" x="655.25" y="140.25" width="37.5" height="37.5" filterUnits="userSpaceOnUse" color-interpolation-filters="sRGB">
<feFlood flood-opacity="0" result="BackgroundImageFix"/>
<feBlend mode="normal" in="SourceGraphic" in2="BackgroundImageFix" result="shape"/>
<feGaussianBlur stdDeviation="1.875" result="effect1_foregroundBlur_188_1678"/>
</filter>
<filter id="filter3_f_188_1678" x="527.842" y="26.8421" width="21.3158" height="21.3158" filterUnits="userSpaceOnUse" color-interpolation-filters="sRGB">
<feFlood flood-opacity="0" result="BackgroundImageFix"/>
<feBlend mode="normal" in="SourceGraphic" in2="BackgroundImageFix" result="shape"/>
<feGaussianBlur stdDeviation="1.57895" result="effect1_foregroundBlur_188_1678"/>
</filter>
<filter id="filter4_f_188_1678" x="450.579" y="137.579" width="29.8421" height="29.8421" filterUnits="userSpaceOnUse" color-interpolation-filters="sRGB">
<feFlood flood-opacity="0" result="BackgroundImageFix"/>
<feBlend mode="normal" in="SourceGraphic" in2="BackgroundImageFix" result="shape"/>
<feGaussianBlur stdDeviation="2.21053" result="effect1_foregroundBlur_188_1678"/>
</filter>
</defs>
</svg>
